<?xml version="1.0" standalone="no"?>
<!DOCTYPE svg PUBLIC "-//W3C//DTD SVG 20010904//EN"
 "http://www.w3.org/TR/2001/REC-SVG-20010904/DTD/svg10.dtd">
<svg version="1.0" xmlns="http://www.w3.org/2000/svg"
 width="826.000000pt" height="826.000000pt" viewBox="0 0 826.000000 826.000000"
 preserveAspectRatio="xMidYMid meet">

<g transform="translate(0.000000,826.000000) scale(0.100000,-0.100000)"
fill="#000000" stroke="none">
<path d="M0 5795 l0 -2464 170 4 c183 4 254 19 265 57 4 10 18 26 32 35 53 35
97 81 151 158 31 44 64 85 73 92 9 7 29 43 45 80 15 37 34 78 42 90 7 12 12
34 10 49 -4 34 -46 41 -81 14 -37 -29 -78 -30 -93 -1 -10 20 -8 31 14 73 21
41 37 58 90 93 9 6 11 84 3 90 -6 3 -8 19 -5 34 4 17 1 32 -5 36 -8 4 -9 11
-3 18 5 7 12 37 15 68 6 66 33 130 58 136 14 4 16 13 12 41 -3 26 -2 33 5 23
6 -8 8 -19 6 -26 -6 -16 22 -39 40 -32 21 8 28 55 14 88 -13 28 -28 39 -28 19
0 -5 -4 -10 -10 -10 -16 0 -12 24 8 40 9 9 25 14 35 12 10 -2 17 3 17 12 0 9
5 16 10 16 6 0 10 11 10 24 0 30 91 138 122 146 12 3 25 15 29 28 8 20 6 22
-15 16 -46 -11 -59 68 -17 99 10 6 32 33 50 60 17 26 38 47 45 47 23 0 39 28
32 55 -10 38 -65 33 -146 -13 -76 -43 -130 -55 -130 -28 0 7 18 25 40 40 22
14 40 31 40 36 0 6 20 31 45 57 27 28 45 55 45 69 0 21 5 24 43 24 49 1 96 32
79 53 -16 20 -24 85 -13 106 6 10 27 22 47 26 48 9 84 33 84 56 0 14 -7 19
-29 19 -17 0 -33 5 -36 10 -3 6 3 10 14 10 12 0 21 7 21 15 0 8 7 15 15 15 8
0 15 5 15 10 0 6 10 24 22 40 17 24 19 32 8 45 -7 8 -20 15 -29 15 -11 1 -8 5
8 14 l25 14 -45 21 c-24 12 -70 24 -103 26 -32 2 -60 6 -63 9 -2 2 23 7 56 11
53 6 61 10 61 28 1 34 33 68 71 76 25 5 34 12 34 26 0 19 -10 21 -140 27 -189
10 -229 16 -216 32 6 7 8 15 5 19 -6 6 2 8 83 28 45 11 53 10 68 -4 17 -18 28
-21 38 -11 3 3 -5 16 -19 29 -27 25 -31 53 -9 61 8 4 12 10 9 15 -3 5 32 9 78
10 145 2 168 22 96 81 -87 71 -101 75 -266 77 -57 1 -46 15 29 37 45 14 63 24
70 41 5 13 16 23 26 24 10 0 38 1 63 2 31 1 46 7 48 18 2 12 -17 19 -88 33
-50 11 -93 22 -96 27 -2 4 5 13 16 19 26 14 25 28 -2 40 -15 6 39 7 155 3 170
-6 179 -5 206 15 16 11 45 24 65 27 20 4 36 11 36 15 0 4 11 11 25 14 28 7 33
24 10 32 -9 4 -15 19 -15 38 0 48 -25 109 -51 126 -56 36 -64 79 -21 125 15
16 27 34 27 39 0 6 11 16 25 23 22 11 23 13 5 14 l-20 0 20 8 c11 5 29 5 40 1
11 -4 35 -5 54 -2 19 2 65 -1 103 -8 62 -11 71 -10 88 5 11 10 22 26 25 36 8
25 -22 87 -64 128 -28 28 -37 32 -51 23 -21 -13 -30 -6 -30 24 0 13 -4 26 -10
29 -15 9 -12 35 4 35 8 0 13 -8 12 -17 -1 -13 8 -19 27 -21 26 -3 28 -1 22 20
-10 30 -7 28 -49 30 -20 1 -36 5 -36 10 0 5 -10 12 -22 17 -17 6 -23 17 -24
41 -2 33 -2 34 15 12 13 -18 23 -21 49 -16 24 5 32 3 32 -8 0 -12 60 -56 68
-50 1 2 23 -6 48 -18 26 -11 53 -20 61 -20 7 0 16 -7 19 -15 4 -8 14 -15 23
-15 9 0 52 -19 96 -41 75 -39 121 -53 206 -64 19 -2 56 -13 82 -24 26 -11 78
-26 115 -32 37 -6 76 -17 87 -23 11 -7 55 -27 98 -45 75 -31 78 -31 102 -14
42 31 28 66 -31 82 -32 8 -56 41 -36 48 10 4 10 8 1 19 -8 10 -8 14 0 14 6 0
17 -13 25 -29 17 -31 40 -41 103 -41 43 0 109 -36 145 -79 32 -38 139 -35 124
4 -2 7 2 21 10 32 9 10 13 13 10 6 -10 -19 226 -6 237 13 11 18 47 18 108 -2
63 -21 73 -13 73 63 1 66 17 78 63 45 17 -12 54 -22 96 -26 l68 -7 15 36 c12
30 27 40 56 37 3 -1 11 5 18 13 8 10 8 24 0 56 -9 33 -9 44 2 50 22 14 42 5
48 -21 6 -27 37 -40 44 -18 3 7 8 44 11 82 4 42 10 64 15 56 4 -7 6 -19 3 -26
-3 -7 3 -23 12 -36 12 -15 15 -17 12 -5 -11 31 9 18 31 -22 26 -46 27 -55 7
-47 -12 4 -13 2 -3 -14 7 -10 20 -21 29 -23 9 -3 20 -19 24 -36 8 -35 46 -66
84 -66 20 0 27 -8 39 -45 8 -25 21 -62 30 -82 l15 -37 18 23 c23 30 23 33 2
39 -13 3 -11 5 6 6 18 1 22 5 16 19 -8 18 -8 62 0 102 5 23 9 25 50 22 24 -2
49 -10 56 -18 6 -7 14 -54 19 -104 5 -66 12 -96 24 -108 16 -16 18 -16 35 5
13 15 20 47 25 109 5 67 13 99 35 143 27 52 35 77 45 138 3 13 14 39 27 59 21
34 23 35 36 18 7 -10 13 -39 13 -65 0 -26 4 -50 9 -54 5 -3 31 -9 57 -14 61
-12 113 10 121 51 6 32 17 42 58 55 25 8 30 15 31 44 0 40 49 129 70 129 8 0
17 7 20 15 7 17 34 21 34 5 0 -6 -11 -22 -25 -36 -15 -15 -25 -36 -25 -54 0
-17 -5 -30 -10 -30 -6 0 -8 -10 -5 -23 4 -15 -4 -37 -24 -67 -23 -35 -31 -63
-38 -125 -10 -87 -6 -165 8 -165 5 0 19 16 31 35 11 20 38 45 58 55 39 20 80
67 80 92 0 22 89 108 111 108 10 0 19 6 19 14 0 18 26 39 39 31 7 -4 4 -16 -9
-33 -15 -22 -17 -35 -11 -70 5 -23 11 -45 14 -49 3 -3 21 10 39 29 44 46 123
108 136 108 6 0 12 -6 15 -12 2 -7 2 -1 0 14 -5 31 19 83 42 92 19 7 65 8 65
2 0 -9 -44 -81 -61 -101 -36 -42 -100 -177 -97 -205 2 -21 -7 -39 -37 -72 -46
-50 -109 -178 -95 -192 11 -11 110 35 110 52 0 7 10 16 23 21 37 14 50 -5 21
-33 -8 -9 -13 -16 -9 -16 4 0 -1 -7 -9 -16 -27 -26 -12 -100 18 -88 7 3 19 -2
26 -11 13 -16 50 -21 50 -6 0 5 25 11 55 13 35 3 66 13 84 26 15 11 48 26 72
32 82 21 109 32 104 40 -3 5 16 3 42 -5 68 -21 107 -19 147 9 43 29 99 35 336
37 186 2 260 11 300 40 14 9 35 20 47 24 18 5 24 1 29 -19 5 -21 -4 -34 -55
-83 l-61 -58 13 -37 c6 -21 17 -38 22 -38 16 0 45 -38 45 -59 0 -27 21 -38 55
-30 24 5 25 7 8 8 -13 0 -23 7 -23 15 0 10 15 14 56 14 48 0 55 -2 48 -16 -9
-20 -9 -67 1 -104 10 -37 -14 -72 -67 -99 -48 -24 -58 -33 -77 -71 -8 -15 -22
-30 -33 -34 -22 -7 -23 -27 -3 -44 23 -19 18 -27 -22 -35 -49 -9 -90 -31 -103
-55 -16 -30 14 -41 75 -28 35 7 68 7 115 -1 36 -6 129 -14 208 -17 176 -8 186
-27 40 -73 -52 -17 -66 -36 -43 -61 16 -18 16 -20 -5 -50 -12 -17 -19 -37 -16
-45 2 -7 32 -19 65 -26 70 -13 92 -39 33 -39 -46 0 -83 -23 -66 -40 7 -7 40
-14 75 -17 35 -2 71 -7 79 -10 8 -3 26 -5 40 -5 25 2 25 2 3 -8 -13 -5 -23
-12 -23 -14 0 -7 62 -41 76 -41 6 0 18 -6 27 -13 11 -9 49 -14 116 -14 56 0
101 -4 101 -9 0 -4 -19 -13 -42 -20 -24 -6 -49 -13 -56 -15 -19 -5 -26 -33
-12 -50 7 -8 20 -12 28 -9 14 5 62 -37 62 -54 0 -5 20 -11 44 -13 59 -7 216
-69 216 -85 0 -22 -46 -14 -73 11 -26 24 -28 25 -76 10 -27 -8 -54 -21 -61
-29 -15 -18 -15 -17 24 -37 l30 -15 -25 -7 c-48 -14 -79 -29 -79 -38 0 -18 46
-53 100 -78 30 -14 57 -28 60 -31 3 -3 19 -14 37 -22 32 -17 83 -77 65 -77 -6
0 -12 -10 -16 -23 -7 -30 -45 -47 -104 -47 -52 0 -118 -16 -127 -30 -3 -5 6
-20 21 -32 15 -13 33 -38 40 -55 16 -37 50 -57 112 -68 23 -4 42 -10 42 -14 0
-3 -16 -15 -35 -25 -41 -23 -45 -33 -10 -33 14 0 34 -8 44 -17 10 -9 35 -16
60 -16 62 0 81 -13 81 -58 -1 -33 -5 -40 -45 -64 -48 -29 -81 -30 -137 -2 -30
16 -76 18 -96 5 -16 -10 13 -33 95 -76 29 -15 67 -45 84 -66 17 -21 38 -39 47
-40 10 0 34 -8 56 -18 34 -15 37 -18 22 -30 -13 -11 -22 -11 -41 -3 -32 15
-183 18 -197 4 -8 -8 17 -28 83 -71 89 -56 149 -106 149 -124 0 -17 -30 -77
-38 -77 -5 0 -9 -11 -9 -25 -1 -14 -8 -34 -17 -44 -23 -25 -20 -67 6 -91 12
-11 25 -20 30 -20 4 0 19 -18 33 -40 14 -22 32 -40 40 -40 9 0 18 -7 21 -15 4
-8 17 -15 30 -15 13 0 24 -4 24 -9 0 -6 -19 -9 -41 -8 -23 1 -44 -3 -46 -9 -2
-6 10 -26 27 -45 16 -19 30 -37 30 -41 0 -15 74 -27 213 -33 l147 -7 0 2206 0
2206 -4130 0 -4130 0 0 -2465z m5130 2215 c0 -5 -4 -10 -10 -10 -5 0 -10 5
-10 10 0 6 5 10 10 10 6 0 10 -4 10 -10z m-12 -304 c3 -25 -18 -55 -40 -56
-15 0 -8 28 9 34 12 5 13 10 5 18 -13 13 -4 40 12 35 6 -2 12 -16 14 -31z
m-238 -121 c0 -20 -5 -25 -25 -25 -18 0 -25 5 -25 18 0 24 8 32 32 32 13 0 18
-7 18 -25z m-1775 -325 c3 -5 2 -10 -4 -10 -5 0 -13 5 -16 10 -3 6 -2 10 4 10
5 0 13 -4 16 -10z m25 -52 c0 -6 -7 -5 -15 2 -8 7 -15 17 -15 22 0 6 7 5 15
-2 8 -7 15 -17 15 -22z m3705 -88 c15 -7 10 -9 -23 -9 -26 -1 -41 3 -37 9 7
12 32 12 60 0z m-5441 -66 c18 4 26 2 26 -7 0 -9 -14 -14 -40 -15 -43 -2 -43
-2 -34 23 5 12 9 13 14 4 5 -7 18 -9 34 -5z m4873 10 c-3 -3 -12 -4 -19 -1 -8
3 -5 6 6 6 11 1 17 -2 13 -5z m-320 -80 c-3 -3 -12 -4 -19 -1 -8 3 -5 6 6 6
11 1 17 -2 13 -5z m1017 -149 c-4 -9 -19 -15 -35 -15 -19 0 -29 5 -29 15 0 10
11 15 35 15 26 0 33 -3 29 -15z m-5959 -345 c3 -6 -5 -10 -19 -10 -14 0 -28 5
-31 10 -3 6 5 10 19 10 14 0 28 -4 31 -10z m5745 -79 c0 -15 -16 -22 -34 -15
-25 9 -19 24 9 24 14 0 25 -4 25 -9z m345 -401 c3 -5 -1 -10 -10 -10 -9 0 -13
5 -10 10 3 6 8 10 10 10 2 0 7 -4 10 -10z m365 -274 c0 -3 -4 -8 -10 -11 -5
-3 -10 -1 -10 4 0 6 5 11 10 11 6 0 10 -2 10 -4z m-6540 -437 c10 -6 -1 -8
-32 -9 -37 0 -48 4 -48 16 0 12 7 14 33 9 17 -4 39 -11 47 -16z m-140 -769 c0
-5 -4 -10 -10 -10 -5 0 -10 5 -10 10 0 6 5 10 10 10 6 0 10 -4 10 -10z m-40
-50 c0 -5 -7 -10 -16 -10 -8 0 -12 5 -9 10 3 6 10 10 16 10 5 0 9 -4 9 -10z
m-30 -40 c0 -5 -4 -10 -10 -10 -5 0 -10 5 -10 10 0 6 5 10 10 10 6 0 10 -4 10
-10z m-305 -250 c3 -5 1 -10 -4 -10 -6 0 -11 5 -11 10 0 6 2 10 4 10 3 0 8 -4
11 -10z"/>
<path d="M1080 4889 c0 -5 5 -7 10 -4 6 3 10 8 10 11 0 2 -4 4 -10 4 -5 0 -10
-5 -10 -11z"/>
<path d="M5228 4109 c-17 -16 -53 -42 -79 -55 -42 -22 -51 -33 -69 -80 -11
-30 -20 -58 -20 -61 0 -4 -7 -14 -15 -24 -19 -20 -25 -95 -11 -136 6 -16 29
-58 51 -91 34 -52 46 -64 80 -73 22 -5 63 -16 90 -24 28 -8 69 -16 91 -19 39
-6 45 -3 88 40 25 24 46 51 46 59 0 8 3 15 8 15 4 0 16 15 25 33 26 48 24 159
-3 212 -11 21 -20 45 -20 53 0 20 -39 92 -50 92 -6 0 -28 16 -49 35 -36 33
-85 55 -119 55 -8 0 -27 -14 -44 -31z"/>
<path d="M2825 4049 c-22 -11 -53 -35 -70 -53 -16 -17 -51 -46 -77 -65 -64
-46 -80 -88 -86 -226 l-4 -110 59 -57 c71 -67 141 -103 243 -124 86 -18 76
-17 117 -15 27 1 39 10 75 59 23 31 50 65 59 75 10 11 20 31 24 45 3 14 20 55
38 91 28 59 31 74 28 141 -3 73 -6 113 -9 136 -1 6 -21 19 -45 28 -24 9 -53
29 -65 45 -39 53 -209 71 -287 30z"/>
<path d="M3140 3074 c0 -15 22 -44 31 -39 18 12 10 45 -11 45 -11 0 -20 -3
-20 -6z"/>
<path d="M4065 2781 c-94 -8 -137 -23 -179 -66 -21 -21 -22 -26 -9 -37 33 -27
110 -37 298 -38 197 0 248 7 271 37 19 26 18 31 -18 49 -18 9 -42 25 -54 35
-17 16 -40 20 -120 23 -54 2 -139 0 -189 -3z"/>
</g>
</svg>
